<svg xmlns="http://www.w3.org/2000/svg" xmlns:xlink="http://www.w3.org/1999/xlink" preserveAspectRatio="xMidYMid" width="373" height="340" viewBox="0 0 373 340">
  <defs>
    <style>
      .cls-1 {
        fill: #000;
        fill-rule: evenodd;
      }
    </style>
  </defs>
  <path d="M369.000,216.000 C369.000,259.322 338.717,295.548 298.171,304.728 C283.447,323.744 260.411,336.000 234.500,336.000 C220.740,336.000 207.806,332.519 196.481,326.432 C185.875,332.508 173.599,336.000 160.500,336.000 C146.268,336.000 133.006,331.883 121.807,324.799 C116.648,325.576 111.375,326.000 106.000,326.000 C47.458,326.000 0.000,278.318 0.000,219.500 C0.000,201.043 4.677,183.685 12.900,168.551 C5.957,155.748 2.000,141.090 2.000,125.500 C2.000,75.518 42.518,35.000 92.500,35.000 C95.405,35.000 98.274,35.151 101.110,35.418 C116.193,15.711 139.865,3.000 166.500,3.000 C190.815,3.000 212.667,13.587 227.766,30.423 C239.061,26.270 251.265,24.000 264.000,24.000 C321.990,24.000 369.000,71.010 369.000,129.000 C369.000,145.171 365.337,160.484 358.807,174.166 C365.306,186.694 369.000,200.912 369.000,216.000 Z" class="cls-1"/>
</svg>
