<svg xmlns="http://www.w3.org/2000/svg" xmlns:xlink="http://www.w3.org/1999/xlink" preserveAspectRatio="xMidYMid" width="342" height="308" viewBox="0 0 342 308">
  <defs>
    <style>
      .cls-1 {
        fill: #000;
        fill-rule: evenodd;
      }
    </style>
  </defs>
  <path d="M342.000,199.922 C342.000,238.284 314.436,270.174 278.076,276.850 C265.784,295.607 244.622,308.000 220.563,308.000 C205.802,308.000 192.132,303.335 180.933,295.398 C171.202,302.530 159.212,306.750 146.234,306.750 C132.368,306.750 119.631,301.932 109.572,293.890 C103.887,294.993 98.023,295.594 92.016,295.594 C41.197,295.594 0.000,254.299 0.000,203.359 C0.000,185.427 5.122,168.702 13.956,154.541 C5.163,141.887 -0.000,126.512 -0.000,109.922 C-0.000,66.714 34.957,31.687 78.078,31.687 C83.172,31.687 88.146,32.192 92.967,33.125 C105.326,13.241 127.319,-0.000 152.406,-0.000 C176.276,-0.000 197.344,11.988 209.979,30.278 C222.076,24.415 235.646,21.125 249.984,21.125 C300.803,21.125 342.000,62.420 342.000,113.359 C342.000,129.786 337.696,145.198 330.186,158.558 C337.665,170.560 342.000,184.730 342.000,199.922 Z" class="cls-1"/>
</svg>
