<?xml version="1.0" encoding="utf-8"?>
<!-- Generator: Adobe Illustrator 17.1.0, SVG Export Plug-In . SVG Version: 6.00 Build 0)  -->
<svg version="1.2" baseProfile="tiny" xmlns="http://www.w3.org/2000/svg" xmlns:xlink="http://www.w3.org/1999/xlink" x="0px"
	 y="0px" viewBox="0 0 100 81.3" xml:space="preserve">
<g id="Layer_1" display="none">
	<g display="inline">
		<path d="M50.1,24.4C36.2,24.4,25,34.9,25,48c0,15.5,10.9,19.4,10.9,28.4c0,2.2,1.7,4.3,4.3,5.8c-0.5,0.4-0.8,0.9-0.8,1.4
			c0,0.7,0.5,1.3,1.5,1.9c-0.9,0.5-1.4,1.2-1.4,1.8c0,0.7,0.5,1.3,1.4,1.8c-0.9,0.5-1.5,1.2-1.5,1.9c0,0.8,0.8,1.6,2.1,2.2
			c-0.5,0.5-0.8,1-0.8,1.5c0,1.6,2.5,2.9,6,3.5c0.6,1.1,1.9,1.9,3.3,1.9c1.5,0,2.7-0.8,3.3-1.9c3.6-0.5,6.1-1.9,6.1-3.5
			c0-0.5-0.3-1-0.8-1.5c1.4-0.6,2.2-1.4,2.2-2.2c0-0.7-0.5-1.3-1.4-1.8c0.9-0.5,1.5-1.2,1.5-1.9c0-0.7-0.6-1.3-1.5-1.9
			c0.9-0.5,1.4-1.2,1.4-1.8c0-0.5-0.3-1-0.9-1.5c2.6-1.5,4.3-3.6,4.3-5.8c0-9,10.9-13,10.9-28.4C75.2,34.9,63.9,24.4,50.1,24.4z
			 M63.2,62.6c-2.5,3.6-5.3,7.7-5.5,13.3c-0.9,0.9-3.9,2.5-7.6,2.5c-3.7,0-6.7-1.5-7.6-2.5c-0.2-5.6-3-9.7-5.5-13.3
			c-2.8-4-5.4-7.8-5.4-14.6c0-9.5,8.3-17.1,18.5-17.1c10.2,0,18.5,7.7,18.5,17.1C68.6,54.8,66,58.6,63.2,62.6z"/>
		<path d="M50.1,16.1c1.8,0,3.3-1.9,3.3-4.3V4.3c0-2.3-1.5-4.3-3.3-4.3c-1.8,0-3.3,1.9-3.3,4.3v7.6C46.8,14.2,48.3,16.1,50.1,16.1z"
			/>
		<path d="M33.2,20.5c1.6-0.9,1.9-3.3,0.7-5.3L30,8.7c-1.2-2-3.4-3-5-2.1c-1.6,0.9-1.9,3.3-0.7,5.3l3.9,6.6
			C29.4,20.5,31.7,21.4,33.2,20.5z"/>
		<path d="M18.8,27.7l-6.7-3.8C10,22.7,7.6,23,6.7,24.6c-0.9,1.5,0,3.7,2.1,4.9l6.7,3.8c2.1,1.2,4.5,0.9,5.4-0.7
			C21.8,31.1,20.9,28.9,18.8,27.7z"/>
		<path d="M91.3,68.8L84.6,65c-2.1-1.2-4.5-0.9-5.4,0.7c-0.9,1.5,0,3.7,2.1,4.9l6.7,3.8c2.1,1.2,4.5,0.9,5.4-0.7
			C94.3,72.2,93.4,70,91.3,68.8z"/>
		<path d="M16.4,49.1c0-1.8-2-3.2-4.3-3.2H4.3C2,45.9,0,47.4,0,49.1c0,1.8,2,3.2,4.3,3.2h7.7C14.5,52.4,16.4,50.9,16.4,49.1z"/>
		<path d="M95.8,45.9H88c-2.4,0-4.3,1.4-4.3,3.2c0,1.8,2,3.2,4.3,3.2h7.7c2.4,0,4.3-1.5,4.3-3.2C100.1,47.4,98.2,45.9,95.8,45.9z"/>
		<path d="M15.5,65l-6.7,3.8c-2.1,1.2-3,3.4-2.1,4.9c0.9,1.5,3.3,1.8,5.4,0.7l6.7-3.8c2.1-1.2,3-3.4,2.1-4.9
			C20,64.1,17.6,63.8,15.5,65z"/>
		<path d="M84.6,33.3l6.7-3.8c2.1-1.2,3-3.4,2.1-4.9c-0.9-1.5-3.3-1.8-5.4-0.7l-6.7,3.8c-2.1,1.2-3,3.4-2.1,4.9
			C80.1,34.2,82.5,34.5,84.6,33.3z"/>
		<path d="M75.1,6.6c-1.6-0.9-3.8,0-5,2.1l-3.9,6.6c-1.2,2-0.9,4.4,0.7,5.3c1.6,0.9,3.8,0,5-2.1l3.9-6.6C77,9.9,76.7,7.5,75.1,6.6z"
			/>
	</g>
</g>
<g id="Layer_2" display="none">
	<g display="inline">
		<path d="M78.5,32.1c-2.5-0.2-4.9,0.1-7.1,1.2c3.4,18.7-8.4,33.1-21.9,37.2C34.9,75,19.2,68.7,11.8,55.4c-7.3-13.2-4.3-29.7,7-39.7
			c11.3-9.9,29.7-11.3,42.9,0.6c1.9-1.3,3.4-2.9,4.5-4.9c0.4-0.7,0.4-1.2-0.3-1.8C55.8,1.2,44.3-1.8,31.5,0.9
			C10.2,5.5-3.1,25.6,0.6,47c3.6,20.9,23.7,35.5,44.7,32.4c10.7-1.5,19.5-6.6,26.1-15.1c7.1-9.3,9.7-19.8,7.8-31.3
			C79.1,32.7,78.7,32.1,78.5,32.1z"/>
		<path d="M45.7,24.6c0.3,0.1,0.8,0.2,1,0.1c2.5-1.4,5-2.8,7.5-4.2c-7.5-6-20.4-7.1-29.8,0.7c-9.3,7.7-11.5,21-5.2,31.4
			c6.3,10.2,19.2,14.3,30.3,9.5C61,57.1,65.2,45.3,63.8,37.4c-2.5,1.4-4.8,2.7-7.2,4c-0.3,0.2-0.6,0.7-0.7,1.2
			c-1.4,8.7-9.9,14.7-18.6,13.5c-8.8-1.3-15.3-10.2-13.7-19C25.5,27.2,35.9,20.9,45.7,24.6z"/>
		<path d="M87.9,13c1.1-4.2,2.1-8.2,3.2-12.4c-0.3,0.1-0.5,0.2-0.7,0.3C84.8,4,79.2,7.2,73.6,10.3c-0.4,0.2-0.8,0.8-0.9,1.3
			c-1.7,4.3-4.4,7.7-8.4,10c-6.2,3.6-12.5,7.1-18.8,10.5c-0.3,0.2-0.9,0.2-1.3,0c-3.1-1.7-6.2-1.6-9.2,0.4c-2.9,2-4,4.9-3.6,8.4
			c0.5,4.1,4.6,7.4,8.8,7.2c4.4-0.2,8-3.8,8.1-7.9c0-0.8,0.3-1.1,0.9-1.5c5.9-3.2,11.7-6.5,17.5-9.8c4.5-2.5,9.2-3.3,14.2-2.5
			c0.6,0.1,1.3,0,1.8-0.3c5-2.8,10.1-5.6,15.1-8.4c0.6-0.3,1.2-0.7,2.1-1.2C95.8,15.3,91.8,14.2,87.9,13z"/>
	</g>
</g>
<g id="Layer_3" display="none">
	<g display="inline">
		<path d="M99.9,0H4L3.9,62.8c1.4-1.2,3.1-2.6,5.2-4.3V9.4h85.7V61h-67c-1.7,1.7-3.3,3.3-4.8,4.7h4.6l-9.3,33.9l10,0.2l9.4-31.7
			h28.4l9.4,31.7l10-0.2l-9.3-33.9h23.7V0z"/>
		<rect x="45.5" y="34.6" width="10.4" height="17.6"/>
		<rect x="62.4" y="18.2" width="10.4" height="34"/>
		<rect x="79.3" y="27.6" width="10.4" height="24.7"/>
		<path d="M37.7,42.7c-0.5-0.4-1.3-0.4-1.8,0c0,0-34.8,28.7-35,28.9c-1.3,1.2-1.3,3.1,0,4.3c1.3,1.2,3.5,1.2,4.8,0
			c0.2-0.1,32-31.6,32-31.6C38.2,43.9,38.2,43.2,37.7,42.7z"/>
	</g>
</g>
<g id="Layer_4" display="none">
	<path display="inline" d="M14.2,43.9c-2.7,0-2.7,4.2,0,4.2c10.9,0,21.8,0,32.8,0c2.7,0,2.7-4.2,0-4.2C36,43.9,25.1,43.9,14.2,43.9z
		"/>
	<path display="inline" d="M46.9,53.7c-10.9,0-21.8,0-32.8,0c-2.7,0-2.7,4.1,0,4.1c10.9,0,21.8,0,32.8,0
		C49.7,57.9,49.7,53.7,46.9,53.7z"/>
	<path display="inline" d="M46.9,62.8c-10.9,0-21.8,0-32.8,0c-2.7,0-2.7,4.1,0,4.1c10.9,0,21.8,0,32.8,0
		C49.7,67,49.7,62.8,46.9,62.8z"/>
	<path display="inline" d="M46.9,72.6c-10.9,0-21.8,0-32.8,0c-2.7,0-2.7,4.1,0,4.1c10.9,0,21.8,0,32.8,0
		C49.7,76.8,49.7,72.6,46.9,72.6z"/>
	<path display="inline" d="M46.3,81.9c-10.9,0-21.9,0-32.8,0c-2.7,0-2.7,4.2,0,4.2c10.9,0,21.8,0,32.8,0C49,86.1,49,81.9,46.3,81.9z
		"/>
	<path display="inline" d="M0,22.7v77.5h61.2V33.4L49.8,22.7H0z M55.9,95H5.2V27.8H47V36h8.8L55.9,95L55.9,95z"/>
	<path display="inline" d="M10.3,10.8v9h5.3V16h41.8v8.2h8.8v59h-2.3v5.2h7.6V21.5L60.1,10.8H10.3z"/>
	<path display="inline" d="M71,0H21.2v9h5.3V5.2h41.8v8.2h8.8v59h-2.3v5.2h7.6V10.7L71,0z"/>
</g>
<g id="Layer_5" display="none">
	<path display="inline" d="M48.1,0L0,22.9v56.7l48.1,20.7l46.8-20.7V22.9L48.1,0z M48,7.8l35.5,17.4L47.4,44.1l-36-18.8L48,7.8z
		 M87.8,74.9L48,92.5l-41-17.6V31l40.3,21.1L87.8,31V74.9z"/>
</g>
<g id="Layer_6" display="none">
	<g display="inline">
		<path d="M8.7,53.3c0-17.2,11.8-31.9,28.3-36.7v4.8l21.7-10.7L37,0v7.6C15.9,13,0,31.3,0,53.3c0,3.1,0.3,6.2,0.9,9l0.9-4.5l8.7,7.1
			C9.2,61.2,8.7,57.3,8.7,53.3z"/>
		<path d="M81.1,60.1l-1.4,23.7l20.2-13l-6.6-4c1.4-4.2,2-8.7,2-13.5c0-20.3-13.6-37.5-32-44l3.5,2.5l-10.4,4.2
			C73.6,20,86.6,35.3,86.6,53.3c0,3.1-0.6,6.2-1.2,9L81.1,60.1z"/>
		<path d="M76.5,79c-7.2,7.6-17.3,12.4-28.9,12.4c-10.4,0-19.9-4.2-26.8-10.7l4.3-2.3l-20.2-13l1.4,23.7l6.6-3.9
			c8.7,9,21.1,14.7,34.6,14.7c11.8,0,22.5-4.2,30.9-11.3l-3.5,1.1L76.5,79z"/>
		<path d="M44.5,26.8V33c-7.2,1.4-11.3,5.9-11.3,11.6c0,6.2,4.9,9.6,11.8,11.9c4.9,1.7,6.9,3.1,6.9,5.6c0,2.5-2.6,3.9-6.4,3.9
			c-4.3,0-8.1-1.4-11-2.8l-2,7.6c2.6,1.4,6.9,2.5,11.3,2.8v6.2h6.6v-6.8c7.5-1.4,11.8-6.2,11.8-11.9c0-5.9-3.2-9.3-11-12.1
			c-5.8-2-8.1-3.4-8.1-5.6c0-1.7,1.4-3.7,5.8-3.7c4.9,0,7.8,1.4,9.5,2.3l2-7.3c-2.3-1.1-5.2-2-9.5-2.3v-5.6L44.5,26.8z"/>
	</g>
</g>
<g id="Layer_7" display="none">
	<g display="inline">
		<path d="M59.8,19.4l1.7-3.9c1.4-3.2,3.8-5.7,6.7-7.2H55.6c1.1,2.1,0.9,4.3-0.9,6.6C57.3,14.9,59.4,16.8,59.8,19.4z"/>
		<path d="M99.9,8.3H82.9c4.5,3.8,4,9,0.4,10.6l-1.8,0.8c9.2,0,9.2-0.9,9.2,5.2c1.2,2.7,1.1,5.8,0,8.5v34.1H9.2V30.6
			c-1.3-2.1-0.9-4.1-0.9-10.2c0-3,2.3-5.5,5.2-5.5c-1.6-1.7-2.1-4.3-0.9-6.6H0v71.9h40.6l-4.8,12.3h-5.5v7.4h39.3v-7.4h-5.5
			l-4.8-12.3h40.6V8.3z M77.5,76.5c-1.4,0-2.5-1.2-2.5-2.7c0-1.5,1.1-2.7,2.5-2.7c1.4,0,2.5,1.2,2.5,2.7
			C80.1,75.3,78.9,76.5,77.5,76.5z M85.7,76.5c-1.4,0-2.5-1.2-2.5-2.7c0-1.5,1.1-2.7,2.5-2.7c1.4,0,2.5,1.2,2.5,2.7
			C88.3,75.3,87.1,76.5,85.7,76.5z"/>
		<path d="M17.3,18.5c-2.5,0-5.6-0.6-5.6,2c0,9.9-1,9.1,5.6,9.1c0.3,1.1,0.8,2.2,1.3,3.3c-3.9,4.2-4.4,3.8-1.1,7.3
			c2.1-2.4,4-2.8,10.2-5.5c-3.2-2.3-5.4-6.1-5.4-10.6c0-7,5.3-12.6,11.9-12.6c7.4,0,13.1,7.2,11.6,15.1l10.8-4.8
			c0-3.7-0.9-3.2-5.6-3.2c-0.3-1.1-0.8-2.2-1.3-3.3c1.8-1.9,4.4-3.8,2.7-5.6c-6.6-7.1-5.4-7.1-10-2.2c-1-0.5-2-1-3.1-1.4
			c0-2.6,0.6-6-1.8-6c-9.3,0-8.5-1-8.5,6c-1.1,0.3-2.1,0.8-3.1,1.4c-1.8-1.9-3.6-4.7-5.3-2.9c-6.6,7-6.7,5.7-2,10.7
			C18,16.2,17.6,17.3,17.3,18.5z"/>
		<path d="M34.1,14.9c-4.7,0-8.5,4.1-8.5,9.1c0,4.1,2.6,7.6,6.2,8.7l9.7-4.3C44.8,22.1,40.4,14.9,34.1,14.9z"/>
		<path d="M61.8,23.2L22.1,40.8c-7.7,3.4-2.9,15.9,4.9,12.5l39.8-17.6c10.4,3.9,10.8,4.3,18.6-0.9c4.3-2.9,3.3-10.1,0.7-9l-7,3.1
			c-1.2,0.5-2.6-0.1-3.1-1.4c-3.5-9-4.1-7.3,6.1-11.8c2.6-1.1-1.5-7-6.5-5.8l-3.5,0.8C66,12.1,64.6,17.1,61.8,23.2z"/>
	</g>
</g>
<g id="Layer_8">
	<g>
		<path d="M66.6,45.6l-0.6,0c2.4-4,3.9-9,3.9-14.3c0-13.6-9.2-24.6-20.4-24.6c-11.3,0-20.4,11-20.4,24.6c0,5.3,1.4,10.3,3.8,14.3
			l-0.6,0c-11.2,0.5-19.9,9.7-19.9,20.9v3.2c0,6.1,5,11.1,11.2,11.1h51.8c3,0,5.8-1.2,7.9-3.3c2.1-2.1,3.3-4.9,3.2-7.9v-3.2
			C86.5,55.3,77.8,46.1,66.6,45.6z M49.5,14.2c7.1,0,12.9,7.7,12.9,17.1c0,9.4-5.8,17.1-12.9,17.1c-7.1,0-12.9-7.7-12.9-17.1
			C36.5,21.8,42.3,14.2,49.5,14.2z M79.1,69.7c0,2-1.6,3.7-3.7,3.7H23.6c-2,0-3.7-1.6-3.7-3.7v-3.2c0-6.5,4.7-12.1,11-13.2
			c4.9,5.6,11.7,8.7,18.6,8.7c6.9,0,13.6-3.2,18.6-8.7c6.3,1.1,11,6.7,11,13.2V69.7z"/>
		<path d="M81.8,34.6c2-3.6,3.1-7.8,3.1-12.1c0-12.2-8.3-22-18.4-22c-2.1,0-3.7,1.7-3.7,3.7c0,2.1,1.7,3.7,3.7,3.7
			c6,0,10.9,6.5,10.9,14.6c0,3.6-1,7.1-2.9,9.8c-1.2,1.7-0.7,4,1,5.2c0.4,0.2,0.7,0.4,1.1,0.5c-0.3,0.3-0.5,0.6-0.7,0.8
			c-1.6,1.4-1.7,3.7-0.4,5.3c1.3,1.5,3.8,1.6,5.3,0.4c0.7-0.6,1.5-1.3,2.2-2.1C88.2,43.3,92,48,92,53.4v2.8c0,2.1,1.7,3.7,3.7,3.7
			c2.1,0,3.7-1.7,3.7-3.7v-2.8C99.5,43.4,91.7,35.2,81.8,34.6z"/>
		<path d="M19.2,44.4c1.5,1.3,4,1.1,5.3-0.4c1.3-1.6,1.2-3.9-0.4-5.3c-0.3-0.2-0.5-0.5-0.8-0.8c0.4-0.1,0.8-0.3,1.2-0.5
			c0.8-0.6,1.4-1.4,1.6-2.4c0.2-1,0-2-0.6-2.8c-1.9-2.7-2.9-6.2-2.9-9.8c0-8,4.9-14.6,10.9-14.6c2.1,0,3.8-1.7,3.8-3.7
			c0-2.1-1.7-3.7-3.8-3.7c-10.1,0-18.4,9.9-18.4,22c0,4.3,1.1,8.5,3.1,12.1c-10,0.6-17.7,8.8-17.7,18.8v2.8c0,2.1,1.7,3.7,3.7,3.7
			c2.1,0,3.7-1.7,3.7-3.7v-2.8c0-5.4,3.8-10.1,9.1-11.1C17.7,43,18.5,43.8,19.2,44.4z"/>
	</g>
</g>
</svg>
