<?xml version="1.0" encoding="utf-8"?>
<!-- Generator: Adobe Illustrator 17.1.0, SVG Export Plug-In . SVG Version: 6.00 Build 0)  -->
<svg version="1.2" baseProfile="tiny" xmlns="http://www.w3.org/2000/svg" xmlns:xlink="http://www.w3.org/1999/xlink" x="0px"
	 y="0px" viewBox="0 0 76.1 100.5" xml:space="preserve">
<g id="Layer_1" display="none">
	<g display="inline">
		<path d="M50.1,24.7c-13.7,0-24.8,10.4-24.8,23.3c0,15.3,10.8,19.2,10.8,28.1c0,2.2,1.7,4.2,4.3,5.8c-0.5,0.4-0.8,0.9-0.8,1.4
			c0,0.7,0.5,1.3,1.5,1.9c-0.9,0.5-1.4,1.1-1.4,1.8c0,0.7,0.5,1.3,1.4,1.8c-0.9,0.5-1.4,1.2-1.4,1.8c0,0.8,0.8,1.6,2.1,2.2
			c-0.5,0.5-0.8,1-0.8,1.5c0,1.6,2.5,2.9,6,3.4c0.6,1.1,1.9,1.9,3.3,1.9c1.4,0,2.7-0.8,3.3-1.9c3.5-0.5,6-1.9,6-3.4
			c0-0.5-0.3-1-0.8-1.5c1.3-0.6,2.1-1.4,2.1-2.2c0-0.7-0.5-1.3-1.4-1.8c0.9-0.5,1.4-1.2,1.4-1.8c0-0.7-0.5-1.3-1.5-1.9
			c0.9-0.5,1.4-1.1,1.4-1.8c0-0.5-0.3-1-0.9-1.5c2.5-1.5,4.2-3.5,4.2-5.7c0-8.9,10.8-12.8,10.8-28.1C74.9,35.1,63.8,24.7,50.1,24.7z
			 M63,62.4c-2.5,3.6-5.3,7.6-5.4,13.1c-0.8,0.9-3.9,2.4-7.5,2.4c-3.6,0-6.7-1.5-7.5-2.4c-0.2-5.5-3-9.6-5.4-13.1
			c-2.8-4-5.4-7.7-5.4-14.4c0-9.3,8.2-17,18.3-17c10.1,0,18.3,7.6,18.3,17C68.4,54.7,65.8,58.5,63,62.4z"/>
		<path d="M50.1,16.5c1.8,0,3.2-1.9,3.2-4.2V4.8c0-2.3-1.5-4.2-3.2-4.2c-1.8,0-3.2,1.9-3.2,4.2v7.5C46.8,14.6,48.3,16.5,50.1,16.5z"
			/>
		<path d="M33.4,20.9c1.5-0.9,1.8-3.2,0.7-5.2l-3.8-6.5c-1.2-2-3.4-2.9-5-2.1c-1.5,0.9-1.8,3.2-0.7,5.2l3.8,6.5
			C29.6,20.8,31.9,21.7,33.4,20.9z"/>
		<path d="M19.2,28l-6.6-3.8c-2-1.2-4.4-0.9-5.3,0.7c-0.9,1.5,0,3.7,2.1,4.9l6.6,3.8c2,1.2,4.4,0.9,5.3-0.7
			C22.1,31.3,21.2,29.1,19.2,28z"/>
		<path d="M90.8,68.6l-6.6-3.8c-2-1.2-4.4-0.9-5.3,0.7c-0.9,1.5,0,3.7,2.1,4.9l6.6,3.8c2,1.2,4.4,0.9,5.3-0.7
			C93.8,71.9,92.9,69.7,90.8,68.6z"/>
		<path d="M16.8,49.1c0-1.8-1.9-3.2-4.3-3.2H4.9c-2.4,0-4.3,1.4-4.3,3.2c0,1.8,1.9,3.2,4.3,3.2h7.6C14.9,52.3,16.8,50.9,16.8,49.1z"
			/>
		<path d="M95.3,46h-7.6c-2.4,0-4.3,1.4-4.3,3.2c0,1.8,1.9,3.2,4.3,3.2h7.6c2.4,0,4.3-1.4,4.3-3.2C99.6,47.4,97.6,46,95.3,46z"/>
		<path d="M15.9,64.8l-6.6,3.8c-2,1.2-3,3.3-2.1,4.9c0.9,1.5,3.3,1.8,5.3,0.7l6.6-3.8c2-1.2,3-3.3,2.1-4.9
			C20.4,64,18,63.7,15.9,64.8z"/>
		<path d="M84.2,33.5l6.6-3.8c2-1.2,3-3.3,2.1-4.9c-0.9-1.5-3.3-1.8-5.3-0.7L81,28c-2,1.2-3,3.3-2.1,4.9
			C79.8,34.3,82.2,34.6,84.2,33.5z"/>
		<path d="M74.8,7.1c-1.5-0.9-3.8,0-5,2.1L66,15.6c-1.2,2-0.9,4.4,0.7,5.2c1.5,0.9,3.8,0,5-2.1l3.8-6.5C76.7,10.3,76.4,7.9,74.8,7.1
			z"/>
	</g>
</g>
<g id="Layer_2" display="none">
	<g display="inline">
		<path d="M78.2,32.2c-2.5-0.2-4.8,0.1-7.1,1.2c3.4,18.5-8.4,32.7-21.7,36.8c-14.4,4.4-30-1.8-37.3-15C5,42.2,7.9,25.8,19.1,16
			c11.2-9.8,29.4-11.2,42.4,0.6c1.9-1.3,3.3-2.9,4.5-4.8c0.4-0.7,0.4-1.2-0.3-1.8c-10-8.3-21.4-11.3-34-8.6
			C10.6,5.8-2.6,25.7,1.1,46.9c3.6,20.7,23.4,35.1,44.2,32.1c10.6-1.5,19.3-6.5,25.9-15c7.1-9.2,9.6-19.6,7.7-31
			C78.8,32.7,78.4,32.2,78.2,32.2z"/>
		<path d="M45.8,24.8c0.3,0.1,0.8,0.2,1,0.1c2.5-1.3,4.9-2.7,7.4-4.1c-7.4-6-20.2-7-29.5,0.7c-9.2,7.6-11.4,20.8-5.1,31.1
			c6.2,10.1,19,14.1,30,9.4C60.9,57,65,45.2,63.7,37.4c-2.4,1.4-4.8,2.7-7.1,4c-0.3,0.2-0.6,0.7-0.7,1.2
			c-1.4,8.6-9.8,14.6-18.4,13.3C28.8,54.7,22.4,45.8,24,37.2C25.8,27.4,36,21.1,45.8,24.8z"/>
		<path d="M87.5,13.3c1.1-4.1,2.1-8.1,3.2-12.3c-0.3,0.1-0.5,0.2-0.7,0.3c-5.5,3.1-11.1,6.2-16.6,9.3c-0.4,0.2-0.7,0.8-0.9,1.3
			c-1.7,4.2-4.4,7.6-8.3,9.9c-6.1,3.6-12.4,7-18.6,10.4c-0.3,0.2-0.9,0.2-1.3,0c-3.1-1.6-6.2-1.6-9.1,0.4c-2.9,2-4,4.9-3.6,8.3
			c0.5,4.1,4.5,7.4,8.7,7.2c4.3-0.2,8-3.7,8-7.9c0-0.7,0.3-1.1,0.9-1.5c5.8-3.2,11.6-6.4,17.3-9.7c4.4-2.5,9.1-3.3,14.1-2.5
			c0.6,0.1,1.3,0,1.8-0.3c5-2.8,10-5.6,14.9-8.4c0.6-0.3,1.2-0.7,2.1-1.2C95.3,15.5,91.4,14.4,87.5,13.3z"/>
	</g>
</g>
<g id="Layer_3" display="none">
	<g display="inline">
		<path d="M99.5,0.4H4.4L4.3,62.7c1.4-1.2,3.1-2.6,5.2-4.3V9.7h85V61H28.1c-1.7,1.7-3.3,3.3-4.7,4.7h4.5l-9.3,33.6l10,0.2l9.3-31.5
			H66l9.3,31.5l10-0.2L76,65.6h23.5V0.4z"/>
		<rect x="45.5" y="34.8" width="10.3" height="17.5"/>
		<rect x="62.3" y="18.5" width="10.3" height="33.8"/>
		<rect x="79" y="27.8" width="10.3" height="24.5"/>
		<path d="M37.8,42.8c-0.5-0.4-1.3-0.4-1.8,0c0,0-34.5,28.5-34.7,28.6c-1.3,1.2-1.3,3.1,0,4.3c1.3,1.2,3.4,1.2,4.7,0
			c0.2-0.1,31.7-31.3,31.7-31.3C38.3,43.9,38.3,43.2,37.8,42.8z"/>
	</g>
</g>
<g id="Layer_4" display="none">
	<g display="inline">
		<path d="M14.5,44c-2.7,0-2.7,4.1,0,4.1c10.8,0,21.6,0,32.4,0c2.7,0,2.7-4.1,0-4.1C36.1,44,25.3,44,14.5,44z"/>
		<path d="M46.9,53.7c-10.8,0-21.6,0-32.4,0c-2.7,0-2.7,4.1,0,4.1c10.8,0,21.6,0,32.4,0C49.6,57.8,49.6,53.7,46.9,53.7z"/>
		<path d="M46.9,62.7c-10.8,0-21.6,0-32.4,0c-2.7,0-2.7,4.1,0,4.1c10.8,0,21.6,0,32.4,0C49.6,66.8,49.6,62.7,46.9,62.7z"/>
		<path d="M46.9,72.4c-10.8,0-21.6,0-32.4,0c-2.7,0-2.7,4.1,0,4.1c10.8,0,21.6,0,32.4,0C49.6,76.5,49.6,72.4,46.9,72.4z"/>
		<path d="M46.2,81.6c-10.8,0-21.6,0-32.4,0c-2.7,0-2.7,4.1,0,4.1c10.8,0,21.6,0,32.4,0C49,85.7,49,81.6,46.2,81.6z"/>
		<path d="M0.4,23v76.6h60.5v-66L49.7,23H0.4z M55.7,94.5h-50V28.1H47v8.1h8.7V94.5z"/>
		<polygon points="10.6,11.2 10.6,20.1 15.9,20.1 15.9,16.3 57.2,16.3 57.2,24.4 65.9,24.4 65.9,82.7 63.6,82.7 63.6,87.8 
			71.1,87.8 71.1,21.9 59.9,11.2 		"/>
		<polygon points="70.6,0.6 21.4,0.6 21.4,9.4 26.6,9.4 26.6,5.7 68,5.7 68,13.8 76.7,13.8 76.7,72.1 74.4,72.1 74.4,77.2 
			81.9,77.2 81.9,11.2 		"/>
	</g>
</g>
<g id="Layer_5" display="none">
	<path display="inline" d="M48.1,0.6L0.6,23.2v56l47.5,20.4l46.2-20.4V23.3L48.1,0.6z M48,8.4l35,17.2L47.4,44.2L11.9,25.6L48,8.4z
		 M87.3,74.6L48,92L7.6,74.6V31.2l39.8,20.9l39.8-20.9V74.6z"/>
</g>
<g id="Layer_6" display="none">
	<g display="inline">
		<path d="M9,53.3c0-17.1,11.7-31.6,28-36.4v4.8l21.5-10.6L37.1,0.4V8C16.2,13.3,0.4,31.5,0.4,53.3c0,3.1,0.3,6.2,0.9,8.9l0.9-4.5
			l8.6,7C9.6,61.1,9,57.2,9,53.3z"/>
		<path d="M80.8,60l-1.4,23.5l20-12.9l-6.6-3.9c1.4-4.2,2-8.7,2-13.4c0-20.1-13.4-37.2-31.8-43.6l3.4,2.5l-10.3,4.2
			c17.2,3.9,30,19,30,36.9c0,3.1-0.6,6.2-1.1,8.9L80.8,60z"/>
		<path d="M76.3,78.7c-7.2,7.6-17.2,12.3-28.6,12.3c-10.3,0-19.7-4.2-26.6-10.6l4.3-2.2l-20-12.9l1.4,23.5l6.6-3.9
			c8.6,8.9,20.9,14.5,34.3,14.5c11.7,0,22.3-4.2,30.6-11.2l-3.4,1.1L76.3,78.7z"/>
		<path d="M44.5,27v6.1c-7.2,1.4-11.2,5.9-11.2,11.5c0,6.2,4.9,9.5,11.7,11.7c4.9,1.7,6.9,3.1,6.9,5.6c0,2.5-2.6,3.9-6.3,3.9
			c-4.3,0-8-1.4-10.9-2.8l-2,7.6c2.6,1.4,6.9,2.5,11.2,2.8v6.2h6.6v-6.7c7.4-1.4,11.7-6.1,11.7-11.7c0-5.9-3.2-9.2-10.9-12
			c-5.7-2-8-3.4-8-5.6c0-1.7,1.4-3.6,5.7-3.6c4.9,0,7.7,1.4,9.4,2.2l2-7.3c-2.3-1.1-5.2-2-9.4-2.2V27L44.5,27z"/>
	</g>
</g>
<g id="Layer_7" display="none">
	<g display="inline">
		<path d="M59.8,19.6l1.7-3.8c1.4-3.2,3.8-5.7,6.7-7.1H55.5c1.1,2,0.9,4.3-0.9,6.5C57.2,15.2,59.3,17.1,59.8,19.6z"/>
		<path d="M99.4,8.7H82.7c4.5,3.8,4,8.9,0.4,10.5L81.3,20c9.2,0,9.1-0.9,9.1,5.1c1.2,2.7,1.1,5.8,0,8.4v33.8H9.5V30.8
			c-1.3-2.1-0.9-4-0.9-10.1c0-3,2.3-5.5,5.2-5.5c-1.6-1.7-2-4.3-0.9-6.5H0.4V80h40.2l-4.8,12.2h-5.4v7.3h39v-7.3H64L59.2,80h40.2
			V8.7z M77.3,76.3c-1.4,0-2.5-1.2-2.5-2.7c0-1.5,1.1-2.7,2.5-2.7c1.4,0,2.5,1.2,2.5,2.7C79.8,75.1,78.7,76.3,77.3,76.3z M85.4,76.3
			c-1.4,0-2.5-1.2-2.5-2.7c0-1.5,1.1-2.7,2.5-2.7c1.4,0,2.5,1.2,2.5,2.7C87.9,75.1,86.8,76.3,85.4,76.3z"/>
		<path d="M17.5,18.7c-2.5,0-5.6-0.6-5.6,1.9c0,9.8-0.9,9,5.6,9c0.3,1.1,0.8,2.2,1.3,3.2c-3.9,4.1-4.4,3.7-1.1,7.3
			c2.1-2.4,4-2.8,10.1-5.5c-3.2-2.2-5.3-6.1-5.3-10.5c0-6.9,5.3-12.5,11.8-12.5c7.3,0,13,7.1,11.5,15l10.7-4.8
			c0-3.7-0.9-3.2-5.6-3.2c-0.3-1.1-0.8-2.2-1.3-3.2c1.7-1.8,4.4-3.8,2.7-5.6c-6.6-7-5.3-7.1-9.9-2.1c-1-0.5-2-1-3-1.3
			c0-2.6,0.6-5.9-1.8-5.9c-9.3,0-8.4-1-8.4,5.9c-1.1,0.3-2.1,0.8-3,1.3c-1.7-1.8-3.5-4.6-5.2-2.8c-6.5,7-6.6,5.6-2,10.6
			C18.3,16.5,17.9,17.6,17.5,18.7z"/>
		<path d="M34.2,15.2c-4.7,0-8.4,4-8.4,9c0,4.1,2.6,7.5,6.2,8.6l9.6-4.3C44.8,22.4,40.5,15.2,34.2,15.2z"/>
		<path d="M61.7,23.4L22.3,40.9c-7.6,3.4-2.9,15.8,4.8,12.4l39.4-17.5c10.3,3.8,10.7,4.3,18.4-0.9c4.3-2.9,3.3-10.1,0.7-8.9L78.8,29
			c-1.2,0.5-2.6-0.1-3.1-1.4c-3.5-8.9-4-7.3,6.1-11.7c2.5-1.1-1.5-7-6.4-5.8L71.9,11C65.8,12.5,64.4,17.4,61.7,23.4z"/>
	</g>
</g>
<g id="Layer_8" display="none">
	<g display="inline">
		<path d="M66.6,45.6l-0.6,0c2.4-4,3.9-9,3.9-14.3c0-13.6-9.2-24.6-20.4-24.6c-11.3,0-20.4,11-20.4,24.6c0,5.3,1.4,10.3,3.8,14.3
			l-0.6,0c-11.2,0.5-19.9,9.7-19.9,20.9v3.2c0,6.1,5,11.1,11.2,11.1h51.8c3,0,5.8-1.2,7.9-3.3c2.1-2.1,3.3-4.9,3.2-7.9v-3.2
			C86.5,55.3,77.8,46.1,66.6,45.6z M49.5,14.2c7.1,0,12.9,7.7,12.9,17.1c0,9.4-5.8,17.1-12.9,17.1c-7.1,0-12.9-7.7-12.9-17.1
			C36.5,21.8,42.3,14.2,49.5,14.2z M79.1,69.7c0,2-1.6,3.7-3.7,3.7H23.6c-2,0-3.7-1.6-3.7-3.7v-3.2c0-6.5,4.7-12.1,11-13.2
			c4.9,5.6,11.7,8.7,18.6,8.7c6.9,0,13.6-3.2,18.6-8.7c6.3,1.1,11,6.7,11,13.2V69.7z"/>
		<path d="M81.8,34.6c2-3.6,3.1-7.8,3.1-12.1c0-12.2-8.3-22-18.4-22c-2.1,0-3.7,1.7-3.7,3.7c0,2.1,1.7,3.7,3.7,3.7
			c6,0,10.9,6.5,10.9,14.6c0,3.6-1,7.1-2.9,9.8c-1.2,1.7-0.7,4,1,5.2c0.4,0.2,0.7,0.4,1.1,0.5c-0.3,0.3-0.5,0.6-0.7,0.8
			c-1.6,1.4-1.7,3.7-0.4,5.3c1.3,1.5,3.8,1.6,5.3,0.4c0.7-0.6,1.5-1.3,2.2-2.1C88.2,43.3,92,48,92,53.4v2.8c0,2.1,1.7,3.7,3.7,3.7
			c2.1,0,3.7-1.7,3.7-3.7v-2.8C99.5,43.4,91.7,35.2,81.8,34.6z"/>
		<path d="M19.2,44.4c1.5,1.3,4,1.1,5.3-0.4c1.3-1.6,1.2-3.9-0.4-5.3c-0.3-0.2-0.5-0.5-0.8-0.8c0.4-0.1,0.8-0.3,1.2-0.5
			c0.8-0.6,1.4-1.4,1.6-2.4c0.2-1,0-2-0.6-2.8c-1.9-2.7-2.9-6.2-2.9-9.8c0-8,4.9-14.6,10.9-14.6c2.1,0,3.8-1.7,3.8-3.7
			c0-2.1-1.7-3.7-3.8-3.7c-10.1,0-18.4,9.9-18.4,22c0,4.3,1.1,8.5,3.1,12.1c-10,0.6-17.7,8.8-17.7,18.8v2.8c0,2.1,1.7,3.7,3.7,3.7
			c2.1,0,3.7-1.7,3.7-3.7v-2.8c0-5.4,3.8-10.1,9.1-11.1C17.7,43,18.5,43.8,19.2,44.4z"/>
	</g>
</g>
<g id="Layer_9">
	<path d="M57.1,52.1h-4c7.7-5,12.8-13.6,12.8-23.5C65.9,13.2,53.4,0.7,38,0.7c-15.4,0-27.9,12.5-27.9,27.9c0,9.8,5.1,18.5,12.8,23.5
		h-4c-10.2,0-18.6,8.3-18.6,18.6v25.9c0,1.7,1.4,3.1,3.1,3.1h69.1c1.7,0,3.1-1.4,3.1-3.1V70.7C75.7,60.4,67.4,52.1,57.1,52.1z
		 M16.3,28.6c0-12,9.8-21.8,21.7-21.8c12,0,21.7,9.8,21.7,21.8S50,50.4,38,50.4C26,50.4,16.3,40.6,16.3,28.6z M47.1,55.1l-9,9l-9-9
		c2.8,1,5.9,1.5,9,1.5C41.2,56.6,44.2,56,47.1,55.1z M69.5,93.5h-8.4V78.7c0-1.7-1.4-3.1-3.1-3.1c-1.7,0-3.1,1.4-3.1,3.1v14.8H21.1
		V78.7c0-1.7-1.4-3.1-3.1-3.1s-3.1,1.4-3.1,3.1v14.8H6.6V70.7c0-6.8,5.6-12.4,12.4-12.4h4.6l12.4,12.4c0.6,0.6,1.4,0.9,2.2,0.9
		c0.8,0,1.6-0.3,2.2-0.9l12.4-12.4h4.6c6.8,0,12.4,5.6,12.4,12.4V93.5z"/>
</g>
</svg>
